<?xml version="1.0" encoding="utf-8"?>
<!-- Generator: Adobe Illustrator 27.5.0, SVG Export Plug-In . SVG Version: 6.00 Build 0)  -->
<svg version="1.1" id="Layer_1" xmlns="http://www.w3.org/2000/svg" xmlns:xlink="http://www.w3.org/1999/xlink" x="0px" y="0px"
	 viewBox="0 0 512 512" style="enable-background:new 0 0 512 512;" xml:space="preserve">
<g>
	<path d="M144.33,213.62c-0.58,18.12,8.48,26.14,8.7,31.24c-0.22,2.1-1.44,3.97-3.28,5.02l-10.24,7.17
		c-1.33,0.93-2.89,1.46-4.5,1.54c-0.34-0.02-6.55,1.46-16.38-20.49c-12.16,15.17-30.65,23.87-50.09,23.56
		c-13.02,0.71-48.32-7.39-46.5-44.97c-1.27-30.62,27.25-49.65,56.74-48.04c5.68,0.02,17.28,0.3,37.59,5.02v-12.5
		c2.15-21.17-11.76-37.59-35.85-35.13c-1.92,0.01-15.52-0.4-36.67,8.09c-5.89,2.7-6.64,2.26-8.6,2.26c-5.93,0-3.49-17.18-2.35-19.36
		c4.17-5.12,28.69-14.68,52.75-14.54c16.09-1.42,32.09,3.54,44.55,13.82c10.23,11.45,15.34,26.58,14.14,41.89L144.33,213.62
		L144.33,213.62z M75.19,239.53c25.94-0.38,36.93-15.98,39.43-24.38c1.97-8.04,1.64-13.13,1.64-21.92
		c-7.74-1.86-18.87-3.88-31.65-3.9c-12.12-0.91-34.26,4.5-33.39,25.81C50.23,228.58,60.12,240.26,75.19,239.53z M211.93,257.97
		c-6.29,0.58-9.22-3.89-10.14-8.3l-39.84-131.72c-0.78-2.22-1.29-4.52-1.54-6.86c-0.31-2.01,1.08-3.89,3.09-4.2
		c0.19-0.03-1.7,0,17.8,0c7.02-0.7,9.31,4.82,10.04,8.3l28.58,112.66l26.53-112.66c0.42-2.58,2.35-8.86,10.24-8.19h13.73
		c1.74-0.14,8.89-0.4,10.14,8.3l26.74,114.1l29.5-114.1c0.38-1.74,2.18-9.1,10.14-8.3h15.78c0.68-0.1,4.92-0.65,4.2,6.86
		c-0.34,1.48,2.73-8.53-42.2,135.92c-0.92,4.41-3.86,8.87-10.14,8.3H299.6c-8.75,0.92-10.01-7.73-10.14-8.6l-26.53-109.7
		l-26.22,109.59c-0.13,0.87-1.38,9.52-10.14,8.6L211.93,257.97L211.93,257.97z M430.71,262.47c-4.7,0.01-27.14-0.24-45.89-9.83
		c-3.82-1.62-6.29-5.38-6.25-9.53v-8.6c0-6.76,4.96-5.52,7.06-4.71c8.03,3.25,13.18,5.71,23.05,7.68
		c29.32,6.02,42.22-1.84,45.38-3.58c10.52-6.25,11.35-20.54,4.2-27.96c-8.38-7.03-12.38-7.3-42.5-16.8
		c-3.71-1.03-34.96-10.89-35.03-41.89c-0.49-22.59,20.04-44.94,55.62-44.76c10.14-0.01,37.14,3.3,44.46,12.5
		c1.08,1.67,1.62,3.64,1.54,5.63v8.09c0,3.55-1.3,5.33-3.9,5.33c-6.17-0.69-17.11-8.94-39.33-8.6c-5.51-0.29-31.91,0.73-30.73,19.98
		c-0.34,15.17,21.29,20.86,23.76,21.51c29.17,8.78,38.92,10.23,50.5,23.66c13.71,17.8,6.32,38.64,3.48,44.35
		C470.85,264.93,431.38,262.49,430.71,262.47L430.71,262.47z M462.87,346.36c-56.02,41.38-137.35,63.4-206.79,63.4
		c-93.69,0.62-184.23-33.83-253.81-96.58c-5.22-4.71-0.62-11.17,5.74-7.58c77.19,44.15,164.58,67.35,253.5,67.29
		c66.4-0.36,132.09-13.83,193.27-39.64C464.19,329.25,472.19,339.49,462.87,346.36L462.87,346.36z M486.22,319.73
		c-7.17-9.22-47.42-4.3-65.45-2.15c-5.43,0.62-6.35-4.1-1.43-7.58c32.06-22.54,84.7-16.08,90.75-8.5
		c6.04,7.58-1.64,60.33-31.65,85.53c-4.61,3.9-9.02,1.84-6.97-3.28C478.23,366.74,493.39,328.95,486.22,319.73z"/>
</g>
</svg>
