<svg xmlns="http://www.w3.org/2000/svg" width="200" height="60" viewBox="0 0 200 60" preserveAspectRatio="xMidYMid meet">
  <g fill="none" fill-rule="evenodd">
    <rect width="200" height="60" fill="transparent"/>
    <path d="M50 40c-6-0-11-4-13-9-6-1-11-6-11-12 0-7 6-13 13-13 1-6 7-10 13-10 6 0 11 4 13 9 6-1 12 1 16 5 4 4 6 9 6 15 0 10-8 18-18 18H50z" fill="#4DA6FF"/>
    <path d="M90 44c-7 0-13-4-16-10-11 0-20-9-20-20 0-10 8-18 18-18 2-10 11-17 21-17 11 0 20 8 21 18 8 0 14 7 14 15 0 9-7 16-16 16H90z" fill="#2D9CDB" opacity="0.95"/>
    <text x="120" y="38" font-family="Arial, Helvetica, sans-serif" font-size="14" fill="#243746">Jerome Ngoh</text>
  </g>
</svg>
